<svg xmlns="http://www.w3.org/2000/svg" width="1.9cm" height="2.2cm" viewBox="0 0 53.4 61.6"><path fill="#231f20" d="M0 15.4v30.8l26.7 15.4 26.7-15.4V15.4L26.7 0 0 15.4z"/><g fill="#fff"><path d="M36.2 47.8H17.1c-4.1 0-7.5-3.4-7.5-7.5v-19c0-4.1 3.4-7.5 7.5-7.5h19.1c4.1 0 7.5 3.4 7.5 7.5v19.1c0 4.1-3.3 7.5-7.5 7.5zm-19.1-32c-3 0-5.5 2.5-5.5 5.5v19.1c0 3 2.5 5.5 5.5 5.5h19.1c3 0 5.5-2.5 5.5-5.5V21.3c0-3-2.5-5.5-5.5-5.5H17.1z"/><path d="M26.7 40.5c-5.3 0-9.7-4.3-9.7-9.7s4.3-9.7 9.7-9.7 9.7 4.3 9.7 9.7-4.3 9.7-9.7 9.7zm0-17.3c-4.2 0-7.7 3.4-7.7 7.7s3.4 7.7 7.7 7.7 7.7-3.4 7.7-7.7-3.4-7.7-7.7-7.7zm10.2.2c-1.7 0-3-1.3-3-3s1.3-3 3-3 3 1.3 3 3-1.3 3-3 3zm0-5c-1.1 0-2 .9-2 2s.9 2 2 2 2-.9 2-2-.9-2-2-2z"/></g></svg>