<?xml version="1.0" encoding="UTF-8"?><svg xmlns="http://www.w3.org/2000/svg" width="1.7cm" height=".4cm" viewBox="0 0 47.9 12.2"><g id="a"/><g id="b"/><g id="c"/><g id="d"/><g id="e"><g><g><path d="M6.3,2.1c0,.9-.2,2.4-.5,3.3,.3,0,.7-.1,.9-.2C7.4,1.7,8,.8,9.1,.8s1,.3,1,.9,0,.4-.2,.5c-.9,0-1,.2-1.4,1.9,.3,.1,.4,.4,.4,.6,0,.5-.3,.9-.6,1.1-.1,.6-.2,1.2-.2,1.4s0,.3,.1,.3c.2,0,.9-.5,1.7-1.7,.2,0,.4,.1,.4,.3,0,.7-1.9,2.7-3.2,2.7s-.8-.2-.8-.8,.1-1.1,.3-1.9c-.2,0-.7,.1-1.1,.2-.7,1.6-1.8,3-3.3,3S.2,8.5,.2,7.3s.6-1.5,2.2-1.7c.7,0,1.2,0,1.8-.1,.1-.7,.3-2.3,.3-2.9s-.4-.9-.4-1.4c0-.8,.7-1.1,1.2-1.1s.9,.5,.9,1.8ZM1.8,7.1c0,.4,.5,.9,.9,.9s.9-.6,1.2-1.4c-.5,0-.9,0-1.4,.1-.6,0-.8,.2-.8,.4Z" fill="#ec9222"/><path d="M13.4,5c0,.5-.1,.9-.3,1.5,0,0,.1,0,.2,0,.3,0,.6-.2,1-.8,.2,0,.4,.2,.4,.4,0,.4-.7,1.4-1.6,1.4s-.3,0-.4-.1c-.5,.7-1.1,1.1-1.8,1.1s-1.3-.5-1.3-1.6c0-1.8,1.2-3.4,2.3-3.4s.6,.1,.6,.5c.1-.1,.2-.1,.4-.1,.4,0,.6,.6,.6,1Zm-2,2.3c.3,0,.5-.2,.7-.7,0-.3-.1-.6-.1-.9s0-.9,.2-1.2c-.7,.3-1.2,1.3-1.2,2.2s.2,.7,.4,.7Z" fill="#ec9222"/><path d="M14,5.3c0-.6,.9-1.7,1.6-1.7s.5,.1,.5,.4-.1,1-.4,1.5c.8-1.3,1.5-1.8,2-1.8s.7,.3,.7,.7,0,.7-.3,1.2c-.2,.5-.5,1.2-.5,1.5s0,.2,.1,.2c.2,0,.9-.5,1.5-1.5,.2,0,.4,.1,.4,.3,0,.7-1.8,2.5-2.8,2.5s-.8-.3-.8-.9,.5-1.8,.5-2,0-.1-.1-.1-.4,.2-.9,.7c-.1,.8-.2,1.3-.2,2-.1,.1-.2,.1-.4,.1-.6,0-1-.6-1-1.2,0-.4,0-.8,.3-1.3,0-.2-.1-.4-.1-.7Z" fill="#ec9222"/><path d="M18.8,6.8c0-1.6,1.3-3.2,2.3-3.2s1.1,.3,1.1,1.1-.5,1.6-2,1.9c0,.5,0,.7,.5,.7,.7,0,1.6-.6,2.3-1.5,.3,0,.4,.2,.4,.3,0,.8-1.8,2.5-3.1,2.5s-1.5-.6-1.5-1.8Zm2.1-2.1c-.1,0-.4,.4-.5,1.1,.6-.1,.7-.4,.7-.8s0-.3-.2-.3Z" fill="#ec9222"/><path d="M23.2,11c-.7,0-1.3-.5-1.3-1.2s.3-1,.8-1,.2,0,.3,0c0,.6,.3,1,.4,1s.2-.1,.2-.4-.2-1.3-.5-2.1c-.2-.7-.2-.8-.3-1.1,0-.3,0-.5,0-.8,0-.9,.7-1.8,1.5-1.8s.6,.1,.6,.5-.2,.8-.5,1c0,.4,0,.8,.3,1.6,.7-.9,.8-1.2,.8-1.7s-.2-.8-.3-1c0-.3,.4-.5,.7-.5,.6,0,.9,.6,.9,1.2s-.5,1.8-1.8,3c0,.3,0,.8,0,1,0,1.4-.8,2.1-1.8,2.1Z" fill="#ec9222"/><path d="M29.5,5.5c.2,0,.3,0,.4,.2v.2c0,1.4,.7,2.1,1.4,2.1s.7-.4,.7-.9,0-.6-1-1.9c-.6-.7-.7-1.3-.7-2,0-1.2,.9-2.4,2.2-2.4s1.6,.7,1.6,1.3-.2,.8-.5,.9c-.6-.5-1-.7-1.3-.7s-.4,.2-.4,.5,.2,.8,.8,1.6c.9,1.3,1,1.7,1,2.3,0,1.2-1.1,2.6-2.9,2.6s-2.5-1-2.5-2.1,.4-1.7,1.2-1.7Z" fill="#ec9222"/><path d="M36.5,4c.3,0,.8,0,.9,0,.1,0,.2,.3,.2,.4,0,.4-.3,.7-.6,.7s-.5,0-.8,0c-.3,1.2-.4,1.8-.4,1.9,0,.3,0,.4,.3,.4,.4,0,1.2-.5,1.9-1.5,.2,0,.4,.1,.4,.4,0,.6-1.6,2.5-2.8,2.5s-1.4-.4-1.4-1.4,.1-1,.5-2.3c-.2,0-.4,0-.4-.3s.2-.6,.7-.6c.5-1.4,1.1-2.4,1.8-2.4s.4,.1,.4,.3-.4,.9-.7,2Z" fill="#ec9222"/><path d="M41.5,5c0,.5-.1,.9-.3,1.5,0,0,.1,0,.2,0,.3,0,.6-.2,1-.8,.2,0,.4,.2,.4,.4,0,.4-.7,1.4-1.6,1.4s-.3,0-.4-.1c-.5,.7-1.1,1.1-1.8,1.1s-1.3-.5-1.3-1.6c0-1.8,1.2-3.4,2.3-3.4s.6,.1,.6,.5c.1-.1,.2-.1,.4-.1,.4,0,.6,.6,.6,1Zm-2,2.3c.3,0,.5-.2,.7-.7,0-.3-.1-.6-.1-.9s0-.9,.2-1.2c-.7,.3-1.2,1.3-1.2,2.2s.2,.7,.4,.7Z" fill="#ec9222"/><path d="M41.6,10.3c0-.3,.2-.8,.5-1.5v-3.1c.2-1.8,1.1-2.7,1.9-2.7s.7,.2,.7,.5,0,0,0,.1c-.4,.3-.7,.9-1,1.8,.7-1,1.4-1.5,1.8-1.5s.8,.4,.8,1-.5,1.7-1.2,2.5c.7,0,1.1-.2,1.5-.5,.2,0,.3,.3,.3,.5,0,.6-.9,1.3-2,1.3s-1.1-.1-1.3-.4c-.1,1.9-.4,3-.9,3s-1.1-.4-1.1-.9Zm2.1-2.8c.2,0,.4,0,.5,0,.2-.4,.5-1.1,.5-1.4s0-.3-.2-.3-.3,.1-.7,.6c0,.4,0,.8,0,1.1Z" fill="#ec9222"/></g><g><path d="M7.2,2.9c0,.9-.2,2.4-.5,3.3,.3,0,.7-.1,.9-.2,.6-3.3,1.2-4.3,2.3-4.3s1,.3,1,.9,0,.4-.2,.5c-.9,0-1,.2-1.4,1.9,.3,.1,.4,.4,.4,.6,0,.5-.3,.9-.6,1.1-.1,.6-.2,1.2-.2,1.4s0,.3,.1,.3c.2,0,.9-.5,1.7-1.6,.2,0,.4,.1,.4,.3,0,.7-1.9,2.7-3.2,2.7s-.8-.2-.8-.8,.1-1.1,.3-1.9c-.2,0-.7,.1-1.1,.2-.7,1.6-1.8,3-3.3,3s-2-.9-2-2,.6-1.5,2.2-1.7c.7,0,1.2,0,1.8-.1,.1-.7,.3-2.3,.3-2.9s-.4-.9-.4-1.4c0-.8,.7-1.1,1.2-1.1s.9,.5,.9,1.8ZM2.7,8c0,.4,.5,.9,.9,.9s.9-.6,1.2-1.4c-.5,0-.9,0-1.4,.1-.6,0-.8,.2-.8,.4Z" fill="#fffabc"/><path d="M14.2,5.9c0,.5-.1,.9-.3,1.5,0,0,.1,0,.2,0,.3,0,.6-.2,1-.8,.2,0,.4,.2,.4,.4,0,.4-.7,1.4-1.6,1.4s-.3,0-.4-.1c-.5,.7-1.1,1.1-1.8,1.1s-1.3-.5-1.3-1.6c0-1.8,1.2-3.4,2.3-3.4s.6,.1,.6,.5c.1-.1,.2-.1,.4-.1,.4,0,.6,.6,.6,1Zm-2,2.3c.3,0,.5-.2,.7-.7,0-.3-.1-.6-.1-.9s0-.9,.2-1.2c-.7,.3-1.2,1.3-1.2,2.2s.2,.7,.4,.7Z" fill="#fffabc"/><path d="M14.9,6.2c0-.6,.9-1.7,1.6-1.7s.5,.1,.5,.4-.1,1-.4,1.5c.8-1.3,1.5-1.8,2-1.8s.7,.3,.7,.7,0,.7-.3,1.2c-.2,.5-.5,1.2-.5,1.5s0,.2,.1,.2c.2,0,.9-.5,1.5-1.5,.2,0,.4,.1,.4,.3,0,.7-1.8,2.5-2.8,2.5s-.8-.3-.8-.9,.5-1.8,.5-2,0-.1-.1-.1-.4,.2-.9,.7c-.1,.8-.2,1.3-.2,2-.1,.1-.2,.1-.4,.1-.6,0-1-.6-1-1.2,0-.4,0-.8,.3-1.3,0-.2-.1-.4-.1-.7Z" fill="#fffabc"/><path d="M19.6,7.6c0-1.6,1.3-3.2,2.3-3.2s1.1,.3,1.1,1.1-.5,1.6-2,1.9c0,.5,0,.7,.5,.7,.7,0,1.6-.6,2.3-1.5,.3,0,.4,.2,.4,.3,0,.8-1.8,2.5-3.1,2.5s-1.5-.6-1.5-1.8Zm2.1-2.1c-.1,0-.4,.4-.5,1.1,.6-.1,.7-.4,.7-.8s0-.3-.2-.3Z" fill="#fffabc"/><path d="M24,11.8c-.7,0-1.3-.5-1.3-1.2s.3-1,.8-1,.2,0,.3,0c0,.6,.3,1,.4,1s.2-.1,.2-.4-.2-1.3-.5-2.1c-.2-.7-.2-.8-.3-1.1,0-.3,0-.5,0-.8,0-.9,.7-1.8,1.5-1.8s.6,.1,.6,.5-.2,.8-.5,1c0,.4,0,.8,.3,1.6,.7-.9,.8-1.2,.8-1.7s-.2-.8-.3-1c0-.3,.4-.5,.7-.5,.6,0,.9,.6,.9,1.2s-.5,1.8-1.8,3c0,.3,0,.8,0,1,0,1.4-.8,2.1-1.8,2.1Z" fill="#fffabc"/><path d="M30.3,6.3c.2,0,.3,0,.4,.2v.2c0,1.4,.7,2.1,1.4,2.1s.7-.4,.7-.9,0-.6-1-1.9c-.6-.7-.7-1.3-.7-2,0-1.2,.9-2.4,2.2-2.4s1.6,.7,1.6,1.3-.2,.8-.5,.9c-.6-.5-1-.7-1.3-.7s-.4,.2-.4,.5,.2,.8,.8,1.6c.9,1.3,1,1.7,1,2.3,0,1.2-1.1,2.6-2.9,2.6s-2.5-1-2.5-2.1,.4-1.7,1.2-1.7Z" fill="#fffabc"/><path d="M37.4,4.9c.3,0,.8,0,.9,0,.1,0,.2,.3,.2,.4,0,.4-.3,.7-.6,.7s-.5,0-.8,0c-.3,1.2-.4,1.8-.4,1.9,0,.3,0,.4,.3,.4,.4,0,1.2-.5,1.9-1.5,.2,0,.4,.1,.4,.4,0,.6-1.6,2.5-2.8,2.5s-1.4-.4-1.4-1.4,.1-1,.5-2.3c-.2,0-.4,0-.4-.3s.2-.6,.7-.6c.5-1.4,1.1-2.4,1.8-2.4s.4,.1,.4,.3-.4,.9-.7,2Z" fill="#fffabc"/><path d="M42.3,5.9c0,.5-.1,.9-.3,1.5,0,0,.1,0,.2,0,.3,0,.6-.2,1-.8,.2,0,.4,.2,.4,.4,0,.4-.7,1.4-1.6,1.4s-.3,0-.4-.1c-.5,.7-1.1,1.1-1.8,1.1s-1.3-.5-1.3-1.6c0-1.8,1.2-3.4,2.3-3.4s.6,.1,.6,.5c.1-.1,.2-.1,.4-.1,.4,0,.6,.6,.6,1Zm-2,2.3c.3,0,.5-.2,.7-.7,0-.3-.1-.6-.1-.9s0-.9,.2-1.2c-.7,.3-1.2,1.3-1.2,2.2s.2,.7,.4,.7Z" fill="#fffabc"/><path d="M42.4,11.1c0-.3,.2-.8,.5-1.5v-3.1c.2-1.8,1.1-2.7,1.9-2.7s.7,.2,.7,.5,0,0,0,.1c-.4,.3-.7,.9-1,1.8,.7-1,1.4-1.5,1.8-1.5s.8,.4,.8,1-.5,1.7-1.2,2.5c.7,0,1.1-.2,1.5-.5,.2,0,.3,.3,.3,.5,0,.6-.9,1.3-2,1.3s-1.1-.1-1.3-.4c-.1,1.9-.4,3-.9,3s-1.1-.4-1.1-.9Zm2.1-2.8c.2,0,.4,0,.5,0,.2-.4,.5-1.1,.5-1.4s0-.3-.2-.3-.3,.1-.7,.6c0,.4,0,.8,0,1.1Z" fill="#fffabc"/></g></g></g></svg>