<svg xmlns="http://www.w3.org/2000/svg" width="6.8cm" height="2.4cm" viewBox="0 0 193.9 69"><g fill="#ec9222"><path d="M36.2 30.9c0 3.1-.8 8.5-1.6 11.5 1-.2 2.3-.5 3.3-.9 2-11.7 4.2-15 8.1-15s3.6 1.2 3.6 3.2-.3 1.4-.7 1.8c-3.1.3-3.6.8-5.1 6.8.9.4 1.3 1.3 1.3 2 0 1.7-1.2 3-2.3 3.8-.4 2.2-.7 4.2-.7 4.9s.1 1 .5 1c.6 0 3.1-1.6 6.1-5.8.7 0 1.4.4 1.4 1.2 0 2.4-6.6 9.6-11.2 9.6s-2.6-.8-2.6-2.9.4-3.7 1-6.7c-.8.2-2.4.5-3.9.7C31 51.8 27 56.5 21.7 56.5s-6.9-3-6.9-7 2-5.3 7.8-5.8c2.3-.2 4.2-.3 6.4-.4.5-2.6 1.2-8 1.2-10.1s-1.3-3-1.3-4.8c0-2.7 2.3-3.8 4.3-3.8s3 1.7 3 6.3zM20.5 48.7c0 1.5 1.7 3 3.2 3s3.2-2.1 4.2-4.8c-1.9.2-3 .3-4.8.4-2 .1-2.7.6-2.7 1.4z"/><path d="M61 41.3c0 1.8-.4 3.2-1.2 5.3.1.1.4.3.7.3 1.1 0 2.2-.9 3.4-2.8.7 0 1.4.6 1.4 1.3 0 1.6-2.5 5-5.6 5s-1.1-.1-1.5-.4c-1.8 2.4-3.7 3.8-6.3 3.8s-4.7-1.8-4.7-5.5c0-6.2 4.1-11.9 8-11.9s2.2.4 2.2 1.6c.4-.4.7-.5 1.3-.5 1.5 0 2.3 2 2.3 3.7zm-7.2 8.1c.9 0 1.8-.9 2.4-2.5-.3-1.2-.4-2.2-.4-3.2s.3-3.2.8-4.3c-2.3 1.1-4.2 4.7-4.2 7.7s.7 2.3 1.3 2.3z"/><path d="M63.3 42.4c0-2.2 3.3-6.1 5.6-6.1s1.6.4 1.6 1.6-.5 3.5-1.5 5.3c2.7-4.7 5.3-6.3 6.9-6.3s2.6 1.1 2.6 2.6-.3 2.3-1.1 4.1c-.7 1.6-1.9 4.3-1.9 5.2s.2.6.5.6c.7 0 3.1-1.9 5.4-5.2.7 0 1.4.5 1.4 1.2 0 2.3-6.3 8.6-9.7 8.6s-2.9-1-2.9-3 1.9-6.2 1.9-7-.1-.4-.4-.4-1.6.6-3 2.6c-.5 2.9-.7 4.5-.9 7.1-.4.4-.6.5-1.5.5-2.1 0-3.6-2-3.6-4.2 0-1.4.3-2.9.9-4.6-.3-.7-.4-1.6-.4-2.3z"/><path d="M79.9 47.5c0-5.6 4.6-11.3 8.2-11.3s4 1.2 4 3.8-1.8 5.5-6.9 6.7c0 1.7.3 2.6 1.8 2.6 2.5 0 5.8-2.2 7.9-5.4.9 0 1.4.6 1.4 1.2 0 2.7-6.2 8.6-11 8.6S80 51.4 80 47.4zm7.2-7.4c-.5 0-1.5 1.3-1.8 3.9 2.1-.4 2.5-1.5 2.5-2.6s-.3-1.2-.7-1.2z"/><path d="M95.5 62.2c-2.6 0-4.7-1.6-4.7-4.2s1-3.5 2.7-3.5.7.1 1 .2c.3 2.2.9 3.5 1.5 3.5s.9-.4.9-1.4-.8-4.6-1.6-7.5c-.7-2.5-.9-3-1-3.9s-.3-1.8-.3-2.8c0-3.3 2.6-6.2 5.4-6.2s2.1.5 2.1 1.6-.9 2.7-1.7 3.6c0 1.4.2 2.7.9 5.8 2.5-3.2 2.9-4.1 2.9-5.8s-.7-2.8-1.2-3.6c.3-1.2 1.5-1.9 2.4-1.9 2.1 0 3.2 2.1 3.2 4.3s-1.7 6.4-6.3 10.7c.1 1 .2 2.9.2 3.6 0 4.9-2.9 7.4-6.3 7.4zm22-19.2c.6 0 1.2.2 1.5.6v.7c0 5 2.3 7.3 4.8 7.3s2.5-1.3 2.5-3.2-.2-2.2-3.7-6.6c-2-2.5-2.6-4.6-2.6-6.9 0-4.1 3.2-8.5 7.9-8.5s5.6 2.3 5.6 4.5-.8 2.6-1.6 3c-2-1.6-3.3-2.4-4.7-2.4s-1.5.7-1.5 1.8.6 2.6 2.8 5.6c3.1 4.4 3.6 6 3.6 8.2 0 4.2-3.9 9.2-10.1 9.2s-8.6-3.4-8.6-7.5 1.4-5.9 4-5.9zm24.7-5.2c1.2 0 2.7-.1 3.2-.3.4.3.7 1 .7 1.6 0 1.4-.9 2.5-2.2 2.5s-1.6 0-2.7-.2c-1 4.1-1.3 6.2-1.3 6.7 0 .9.2 1.3 1 1.3 1.5 0 4.1-1.8 6.6-5.3.7 0 1.5.5 1.5 1.3 0 2.2-5.7 8.8-9.9 8.8s-4.8-1.5-4.8-4.9.4-3.3 1.8-8.1c-.7 0-1.4-.1-1.4-1s.8-2.2 2.3-2.2c1.9-4.9 3.8-8.3 6.3-8.3s1.4.4 1.4 1.2-1.3 3-2.6 6.9z"/><path d="M159.7 41.3c0 1.8-.4 3.2-1.2 5.3.1.1.4.3.7.3 1.1 0 2.2-.9 3.4-2.8.7 0 1.4.6 1.4 1.3 0 1.6-2.5 5-5.6 5s-1.1-.1-1.5-.4c-1.8 2.4-3.7 3.8-6.3 3.8s-4.7-1.8-4.7-5.5c0-6.2 4.1-11.9 8-11.9s2.2.4 2.2 1.6c.4-.4.7-.5 1.3-.5 1.5 0 2.3 2 2.3 3.7zm-7.2 8.1c.9 0 1.8-.9 2.4-2.5-.3-1.2-.4-2.2-.4-3.2s.3-3.2.8-4.3c-2.3 1.1-4.2 4.7-4.2 7.7s.7 2.3 1.3 2.3z"/><path d="M160 59.7c0-1 .6-2.9 1.9-5.4l.4-10.8c.2-6.3 3.6-9.4 6.2-9.4s2.5.7 2.5 1.8v.4c-1.4 1.2-2.6 3-3.4 6.2 2.4-3.5 4.8-5.3 6.3-5.3s2.9 1.4 2.9 3.3-1.9 5.9-4.4 8.7c2.3-.3 3.9-.8 5.3-1.6.7.3 1.1 1 1.1 1.7 0 2.2-3.1 4.5-7.2 4.5s-4-.5-4.6-1.5c-.5 6.7-1.4 10.6-3.2 10.6s-4-1.4-4-3.3zm7.3-10c.7 0 1.4-.1 1.9-.2.7-1.3 1.7-4 1.7-4.8s-.3-1-.7-1-1.2.5-2.6 2c0 1.4-.1 2.7-.2 4z"/></g><g fill="#fffabc"><path d="M39.3 33.9c0 3.1-.8 8.5-1.6 11.5 1-.2 2.3-.5 3.3-.9 2-11.7 4.2-15 8.1-15s3.6 1.2 3.6 3.2-.3 1.4-.7 1.8c-3.1.3-3.6.8-5.1 6.8.9.4 1.3 1.3 1.3 2 0 1.7-1.2 3-2.3 3.8-.4 2.2-.7 4.2-.7 4.9s.1 1 .5 1c.6 0 3.1-1.6 6.1-5.8.7 0 1.4.4 1.4 1.2 0 2.4-6.6 9.6-11.2 9.6s-2.6-.8-2.6-2.9.4-3.7 1-6.7c-.8.2-2.4.5-3.9.7-2.4 5.7-6.4 10.4-11.7 10.4s-6.9-3-6.9-7 2-5.3 7.8-5.8c2.3-.2 4.2-.3 6.4-.4.5-2.6 1.2-8 1.2-10.1s-1.3-3-1.3-4.8c0-2.7 2.3-3.8 4.3-3.8s3 1.7 3 6.3zM23.6 51.7c0 1.5 1.7 3 3.2 3s3.2-2.1 4.2-4.8c-1.9.2-3 .3-4.8.4-2 .1-2.7.6-2.7 1.4z"/><path d="M64 44.3c0 1.8-.4 3.2-1.2 5.3.1.1.4.3.7.3 1.1 0 2.2-.9 3.4-2.8.7 0 1.4.6 1.4 1.3 0 1.6-2.5 5-5.6 5s-1.1-.1-1.5-.4c-1.8 2.4-3.7 3.8-6.3 3.8s-4.7-1.8-4.7-5.5c0-6.2 4.1-11.9 8-11.9s2.2.4 2.2 1.6c.4-.4.7-.5 1.3-.5 1.5 0 2.3 2 2.3 3.7zm-7.2 8.1c.9 0 1.8-.9 2.4-2.5-.3-1.2-.4-2.2-.4-3.2s.3-3.2.8-4.3c-2.3 1.1-4.2 4.7-4.2 7.7s.7 2.3 1.3 2.3z"/><path d="M66.3 45.4c0-2.2 3.3-6.1 5.6-6.1s1.6.4 1.6 1.6-.5 3.5-1.5 5.3c2.7-4.7 5.3-6.3 6.9-6.3s2.6 1.1 2.6 2.6-.3 2.3-1.1 4.1c-.7 1.6-1.9 4.3-1.9 5.2s.2.6.5.6c.7 0 3.1-1.9 5.4-5.2.7 0 1.4.5 1.4 1.2 0 2.3-6.3 8.6-9.7 8.6s-2.9-1-2.9-3 1.9-6.2 1.9-7-.1-.4-.4-.4-1.6.6-3 2.6c-.5 2.9-.7 4.5-.9 7.1-.4.4-.6.5-1.5.5-2.1 0-3.6-2-3.6-4.2 0-1.4.3-2.9.9-4.6-.3-.7-.4-1.6-.4-2.3z"/><path d="M82.9 50.5c0-5.6 4.6-11.3 8.2-11.3s4 1.2 4 3.8-1.8 5.5-6.9 6.7c0 1.7.3 2.6 1.8 2.6 2.5 0 5.8-2.2 7.9-5.4.9 0 1.4.6 1.4 1.2 0 2.7-6.2 8.6-11 8.6S83 54.4 83 50.4zm7.2-7.4c-.5 0-1.5 1.3-1.8 3.9 2.1-.4 2.5-1.5 2.5-2.6s-.3-1.2-.7-1.2z"/><path d="M98.5 65.2c-2.6 0-4.7-1.6-4.7-4.2s1-3.5 2.7-3.5.7.1 1 .2c.3 2.2.9 3.5 1.5 3.5s.9-.4.9-1.4-.8-4.6-1.6-7.5c-.7-2.5-.9-3-1-3.9s-.3-1.8-.3-2.8c0-3.3 2.6-6.2 5.4-6.2s2.1.5 2.1 1.6-.9 2.7-1.7 3.6c0 1.4.2 2.7.9 5.8 2.5-3.2 2.9-4.1 2.9-5.8s-.7-2.8-1.2-3.6c.3-1.2 1.5-1.9 2.4-1.9 2.1 0 3.2 2.1 3.2 4.3s-1.7 6.4-6.3 10.7c.1 1 .2 2.9.2 3.6 0 4.9-2.9 7.4-6.3 7.4zm22-19.2c.6 0 1.2.2 1.5.6v.7c0 5 2.3 7.3 4.8 7.3s2.5-1.3 2.5-3.2-.2-2.2-3.7-6.6c-2-2.5-2.6-4.6-2.6-6.9 0-4.1 3.2-8.5 7.9-8.5s5.6 2.3 5.6 4.5-.8 2.6-1.6 3c-2-1.6-3.3-2.4-4.7-2.4s-1.5.7-1.5 1.8.6 2.6 2.8 5.6c3.1 4.4 3.6 6 3.6 8.2 0 4.2-3.9 9.2-10.1 9.2s-8.6-3.4-8.6-7.5 1.4-5.9 4-5.9zm24.7-5.2c1.2 0 2.7-.1 3.2-.3.4.3.7 1 .7 1.6 0 1.4-.9 2.5-2.2 2.5s-1.6 0-2.7-.2c-1 4.1-1.3 6.2-1.3 6.7 0 .9.2 1.3 1 1.3 1.5 0 4.1-1.8 6.6-5.3.7 0 1.5.5 1.5 1.3 0 2.2-5.7 8.8-9.9 8.8s-4.8-1.5-4.8-4.9.4-3.3 1.8-8.1c-.7 0-1.4-.1-1.4-1s.8-2.2 2.3-2.2c1.9-4.9 3.8-8.3 6.3-8.3s1.4.4 1.4 1.2-1.3 3-2.6 6.9z"/><path d="M162.7 44.3c0 1.8-.4 3.2-1.2 5.3.1.1.4.3.7.3 1.1 0 2.2-.9 3.4-2.8.7 0 1.4.6 1.4 1.3 0 1.6-2.5 5-5.6 5s-1.1-.1-1.5-.4c-1.8 2.4-3.7 3.8-6.3 3.8s-4.7-1.8-4.7-5.5c0-6.2 4.1-11.9 8-11.9s2.2.4 2.2 1.6c.4-.4.7-.5 1.3-.5 1.5 0 2.3 2 2.3 3.7zm-7.2 8.1c.9 0 1.8-.9 2.4-2.5-.3-1.2-.4-2.2-.4-3.2s.3-3.2.8-4.3c-2.3 1.1-4.2 4.7-4.2 7.7s.7 2.3 1.3 2.3z"/><path d="M163 62.7c0-1 .6-2.9 1.9-5.4l.4-10.8c.2-6.3 3.6-9.4 6.2-9.4s2.5.7 2.5 1.8v.4c-1.4 1.2-2.6 3-3.4 6.2 2.4-3.5 4.8-5.3 6.3-5.3s2.9 1.4 2.9 3.3-1.9 5.9-4.4 8.7c2.3-.3 3.9-.8 5.3-1.6.7.3 1.1 1 1.1 1.7 0 2.2-3.1 4.5-7.2 4.5s-4-.5-4.6-1.5c-.5 6.7-1.4 10.6-3.2 10.6s-4-1.4-4-3.3zm7.3-10c.7 0 1.4-.1 1.9-.2.7-1.3 1.7-4 1.7-4.8s-.3-1-.7-1-1.2.5-2.6 2c0 1.4-.1 2.7-.2 4z"/></g><path fill="#fcd732" d="M13.3 18.7c-.7-1.1-1.8-3.6-1.8-5.2 0-3.5 2.2-6.4 4.9-6.4s4.9 2.9 4.9 6.4-1.2 4-1.9 5.1"/><path fill="#ec9222" d="M13.2 18.7c-1.5-1.9-2.7-4.5-2-7 .9-3.8 5.5-6.9 8.7-3.5 2.9 3 2.1 7.5-.4 10.4.7-1.7 1.4-3.4 1.4-5.1 0-2.7-1.5-5.9-4.5-6.2-3.2-.2-4.6 3.6-4.5 6.2.1 1.7.7 3.4 1.4 5.1z"/><path fill="#fcd732" d="M12 24c-1.2.7-3.9 2.3-4.6 3.7-1.7 3.1-1 6.7 1.4 8s5.7-.2 7.4-3.4 1-4 .8-5.3"/><path fill="#ec9222" d="M12.1 24.1c-1.8 1.5-4 2.7-4.8 5-1.7 3.5.5 7.8 4.7 6.4 2.1-.8 3.8-2.7 4.4-4.9.3-1.1.5-2.3.6-3.5.5 2.5.2 5.2-1.6 7.2-1.6 2-4.8 3.2-7.1 1.6-2.5-1.9-2.7-5.6-1.4-8.3 1.1-1.8 3.1-2.7 5-3.5z"/><path fill="#fcd732" d="M17 27c.2 1.3.8 4.9 1.8 6.1 2.3 2.7 5.8 3.4 7.9 1.7 2.1-1.8 1.9-5.4-.4-8.1s-4.1-2.5-5.4-2.9"/><path fill="#ec9222" d="M17.1 27c.8 2.3 1 5 2.8 6.7 2.7 3.1 7.7 2.6 7.8-2.1 0-1.7-.9-3.5-2-4.8-1.4-1.2-3.1-2.1-4.8-2.9 4.1.6 7.9 3.1 7.7 7.7-.2 5.4-7.1 5.3-10 2-.7-.7-1-1.8-1.2-2.8-.3-1.3-.4-2.6-.4-3.8z"/><path fill="#fcd732" d="M20.9 23.8c1.3.1 5.4.5 6.8-.2 3.2-1.6 4.7-4.9 3.5-7.3s-4.8-3.1-8-1.5c-1.4.7-3.1 2.7-3.7 3.8"/><path fill="#ec9222" d="M20.9 23.8c1.3 0 4.3 0 5.6-.3 2.8-.5 5.8-3.5 4.7-6.4-1.2-2.9-5-3-7.5-1.9-1.6.7-2.9 2.1-4.1 3.5 1.5-3.7 5.7-6.4 9.7-4.8 4.5 1.8 2.7 7.6-.6 9.7-1.1.8-2.6.9-3.8.8-1.3 0-2.5-.2-3.8-.5z"/><path fill="#fcd732" d="M13.3 18.7c-.8-1.1-2.6-3-4.1-3.5-3.3-1.3-6.8-.3-7.8 2.2s.8 6.2 4.2 7.2c1.9.6 5.3-.3 6.4-.6"/><path fill="#ec9222" d="M13.2 18.7c-1.3-1.3-2.7-2.6-4.4-3.2-2.6-1.1-6.9-.9-7.3 2.6-.3 3 2.2 5.6 5 6.2 1.8.2 3.7 0 5.5-.3-3.8 1.7-8.2 2.1-10.5-2.1-2.4-4.2 1.4-8 5.7-7.6 2.7.1 4.8 2.2 6.1 4.4z"/><circle cx="16.4" cy="22.1" r="4.8" fill="#fffabc"/><path fill="#ec9222" d="M21.3 22.1c-.3 6.6-9.7 6.6-10 0 .1-6.9 9.9-7 10 0zm-.1 0c-.3-5.6-8.8-5.6-9.1 0 0 6 9 6 9.1 0z"/><path fill="#fcd732" d="M183.3 58.3c-.4-.6-.9-1.9-.9-2.7 0-1.9 1.2-3.4 2.6-3.4s2.6 1.5 2.6 3.4-.6 2.1-1 2.7"/><path fill="#ec9222" d="M183.3 58.3c-1-.9-1.6-2.4-1.2-3.7.6-2 3.2-3.7 4.9-1.9 1.7 1.6 1.2 4.2-.4 5.6.3-.9.6-1.8.5-2.7 0-1.3-.7-2.9-2.1-3.1-1.7-.2-2.2 1.8-2.1 3.1 0 .9.3 1.8.5 2.6z"/><path fill="#fcd732" d="M182.7 61.1c-.6.3-2 1.2-2.4 1.9-.9 1.6-.5 3.5.7 4.2s3-.1 3.9-1.8.5-2.1.4-2.8"/><path fill="#ec9222" d="M182.7 61.1c-.7.7-1.4 1.2-2 1.9-.7 1.1-1.3 3.1.3 3.8 1.4.5 2.7-.5 3.4-1.7.5-.8.6-1.7.8-2.6.7 2-.3 4.6-2.5 5.1-2.4.7-3.7-2.2-3.3-4.2.3-1.4 1.8-2.2 3.1-2.5z"/><path fill="#fcd732" d="M185.3 62.6c0 .7.4 2.6.9 3.2 1.2 1.4 3.1 1.8 4.2.9s1-2.8-.2-4.2-2.2-1.3-2.8-1.5"/><path fill="#ec9222" d="M185.3 62.6c.5 1 .7 2.1 1.3 3 .7 1.1 2.4 2.1 3.5.9 1-1.1.4-2.8-.5-3.9-.7-.6-1.5-1.1-2.4-1.7 1.4 0 3 .6 3.7 1.8.8 1.2.8 3.3-.6 4.1-1.5.8-3.4.4-4.5-.8-.8-1-.8-2.4-.7-3.6z"/><path fill="#fcd732" d="M187.3 61c.7 0 2.8.3 3.5-.1 1.7-.8 2.5-2.6 1.8-3.8-.6-1.3-2.5-1.6-4.2-.8s-1.6 1.4-2 2"/><path fill="#ec9222" d="M187.3 60.9c1.2-.3 2.5 0 3.6-.6 1.9-.7 2.5-3.1.4-3.9-1.1-.3-2.3 0-3.3.6l-1.5 1.2c.6-2.2 3-3.7 5.2-2.7 2.4 1 1.4 4.2-.3 5.5-.6.5-1.4.5-2.1.4-.7 0-1.3-.2-2-.4z"/><path fill="#fcd732" d="M183.3 58.3c-.4-.6-1.4-1.5-2.1-1.9-1.7-.7-3.6-.2-4.1 1.2s.4 3.2 2.2 3.8c1 .3 2.8-.2 3.3-.3"/><path fill="#ec9222" d="M183.3 58.3c-1-.8-2-1.5-3.2-1.7-1.1-.4-2.8 0-2.8 1.4s1.2 2.7 2.5 3c.9.2 1.9 0 2.9 0-1.2.7-2.8 1.3-4.1.6-1.3-.6-2.3-2.3-1.8-3.8.6-1.7 2.8-2.5 4.5-1.9 1 .4 1.7 1.3 2.1 2.3z"/><circle cx="185" cy="60.1" r="2.5" fill="#fffabc"/><path fill="#ec9222" d="M187.6 60.1c-.1 3.6-5.2 3.6-5.5 0 0-3.9 5.5-4 5.5 0zm-.1 0c-.1-2.6-4.4-2.6-4.6 0 0 3 4.5 3 4.6 0z"/><g fill="#94d8f0"><path d="M39.6 1.2c-4.3-1.9-3.2 6.2-3.2 6.2.4 0 .9.2 1.3.3l.2-.2c.3-.9 1.3-3.8 2.8-4.8 0-.6-.4-1.2-1.2-1.6z"/><path d="M40.8 2.7c-1.5 1-2.6 3.9-2.8 4.8.7-.7 2.9-3.1 2.8-4.8z"/><path d="M37.9 7.6v.3c.5.2.8.3 1.5.7 0 0 6.7-2.4 4.1-5.2-1-1-1.9-1-2.6-.5 0 1.8-2.2 4.2-2.8 4.8z"/></g><g fill="none" stroke="#00beec" stroke-miterlimit="10" stroke-width=".5"><path d="M37.9 7.6v.3c.5.2.8.3 1.5.7 0 0 6.7-2.4 4.1-5.2-1-1-1.9-1-2.6-.5"/><path d="M40.8 2.7c0-.6-.4-1.2-1.2-1.6-4.3-1.9-3.2 6.2-3.2 6.2.4 0 .9.2 1.3.3l.2-.2c.7-.7 2.9-3.1 2.8-4.8z"/></g><path fill="#00beec" d="M37 7.5c-.2-.4-.1-.9 0-1.3 0-.4.1-1.1.5-1.2 0 .9-.4 1.7-.4 2.6zm1.6.6c.8-.4 1.4-1.2 2.1-1.7 0 .5-.5.9-.9 1.1-.4.2-.9.6-1.3.6z"/><ellipse cx="36.4" cy="12.3" fill="#fff15b" stroke="#fff15b" stroke-miterlimit="10" stroke-width=".5" rx="4.7" ry="7.2" transform="rotate(-68.9 36.417 12.226)"/><path fill="#1e2320" stroke="#1e2320" stroke-miterlimit="10" stroke-width=".5" d="M32.2 15.2c.5.4 1 .7 1.6 1 1.9-2.4 3-5.3 3.1-8.7-.6-.2-1.2-.3-1.8-.3 0 3.1-1 5.8-2.9 8zm4.6 2c.8.1 1.4.2 2 .1 1.8-1.5 3.2-4.5 2.7-7.4-.4-.4-1-.9-1.6-1.2.5 2.7-1.2 6.9-3.1 8.4z"/><rect width=".7" height=".7" x="32.1" y="9.1" fill="#fff" stroke="#231f20" stroke-dasharray="0 1.8" stroke-linecap="round" stroke-linejoin="round" stroke-width=".3" rx=".4" ry=".4" transform="rotate(-145.9 32.428 9.42)"/><path fill="#1e2320" d="M45.1 15.6l-.2-.2c-.5-.5-1-1-1.4-1.6l-.2-.3c0 .5 0 .9-.2 1.4-.1.4-.4.8-.7 1.1h.6c.5-.2 1-.3 1.5-.3h.6z"/><path fill="none" stroke="#0c382b" stroke-dasharray="0 1.7" stroke-linecap="round" stroke-linejoin="round" stroke-width=".4" d="M122.4 49c4.9.6 10.7 2.7 16.2 6.4 4.9 3.3 5 5.5 10.8 8.8 4.2 2.4 11.8 3.7 22.1 2.5s11.4-3.3 13.2-6.5"/><path fill="none" stroke="#0c382b" stroke-dasharray="0 1.7" stroke-linecap="round" stroke-linejoin="round" stroke-width=".4" d="M47.1 15.3c4.3 2.1 10.5 4.1 17.6 3.5 3.2-.3 6.8-.6 8.6-3.1 1.5-2.2 1.2-5.7-.4-6.4-3-1.3-12.3 5.3-11.2 9.6.7 3.1 6.4 3.5 25.7 7.9 17.7 4 23 6 28.3 9.5 3.5 2.4 9.6 6.6 10.1 13.1 0 .4.4 6.5-3.5 8.8-5.7 3.4-12.1.8-10.8-5.4.5-2.1 2.3-3.4 5.4-3.8"/></svg>