<?xml version="1.0" encoding="UTF-8"?><svg xmlns="http://www.w3.org/2000/svg" width=".9cm" height=".8cm" viewBox="0 0 24.2 23.3"><g id="a"/><g id="b"/><g id="c"/><g id="d"/><g id="e"><g><g><path d="M9.9,9.4c-.6-.9-1.4-2.8-1.4-4,0-2.7,1.7-4.9,3.8-4.9s3.8,2.2,3.8,4.9-.9,3.1-1.5,3.9" fill="#fcd732"/><path d="M9.9,9.4c-1.3-1.4-2.2-3.5-1.6-5.4,.8-2.9,4.4-5.4,6.9-2.7,2.3,2.3,1.7,5.9-.4,8.1h0c.5-1.3,1-2.6,1-3.9,0-2-1.1-4.4-3.3-4.7-2.5-.2-3.4,2.7-3.3,4.7,0,1.3,.5,2.6,1,3.9h0Z" fill="#ec9222"/></g><g><path d="M9,13.5c-.9,.5-3,1.8-3.6,2.8-1.3,2.4-.8,5.2,1.1,6.1,1.9,1,4.4-.2,5.7-2.6,.6-1.1,.7-3.1,.6-4.1" fill="#fcd732"/><path d="M9,13.5c-1,.9-2.2,1.7-3,2.7-1.1,1.7-1.8,4.7,.5,5.8,2.1,.9,4.2-.7,5.2-2.4,.6-1.2,.9-2.5,1.1-3.9h0c.8,2.9-.6,6.5-3.7,7.3-3.5,1.1-5.3-3.1-4.5-5.9,.5-2,2.6-3.1,4.3-3.7h0Z" fill="#ec9222"/></g><g><path d="M12.8,15.7c.1,1,.6,3.8,1.4,4.7,1.8,2.1,4.5,2.7,6.1,1.3,1.6-1.4,1.5-4.1-.3-6.2-.8-.9-3.2-2-4.2-2.2" fill="#fcd732"/><path d="M12.8,15.7c.3,.9,1,3.2,1.4,4.1,1.1,1.8,3.9,3.6,5.7,1.8,1.6-1.7,.8-4.4-.6-6-1-.9-2.3-1.6-3.6-2.3h0c3.2,.3,6.2,2.4,6,5.9-.2,4.2-5.6,4.2-7.9,1.6-1.2-1.4-1.2-3.4-1.2-5.1h0Z" fill="#ec9222"/></g><g><path d="M15.8,13.3c1,.1,4.1,.4,5.2-.2,2.4-1.2,3.6-3.8,2.7-5.6s-3.7-2.4-6.1-1.1-2.4,2.1-2.9,3" fill="#fcd732"/><path d="M15.8,13.3c1.8-.2,3.8,.1,5.5-.7,5.2-2.8,1.6-8-3.3-5.8-1.3,.6-2.3,1.6-3.2,2.6h0c1.1-3,4.4-5.1,7.5-3.8,3.5,1.4,2,5.9-.4,7.7-.8,.7-2,.7-3,.6-1,0-2-.2-2.9-.5h0Z" fill="#ec9222"/></g><g><path d="M9.9,9.4c-.6-.8-2-2.3-3.1-2.7-2.5-1-5.2-.2-6,1.7-.8,1.9,.7,4.7,3.3,5.5,1.5,.4,4-.2,4.9-.4" fill="#fcd732"/><path d="M9.9,9.4c-1.4-1.3-2.8-2.5-4.7-2.7-1.7-.5-4.1,.2-4.3,2.2-.1,2.2,1.7,4.2,3.8,4.6,1.4,.2,2.8,0,4.2-.1h0c-1.8,.8-4,1.6-5.9,.6C1.2,13.1-.2,10.9,.4,8.8c.8-2.5,4.1-3.5,6.4-2.6,1.4,.6,2.5,1.8,3.2,3.2h0Z" fill="#ec9222"/></g><g><circle cx="12.3" cy="12" r="3.7" fill="#fffabc"/><path d="M16.1,12c-.2,5.2-7.5,5.2-7.8,0,0-5.5,7.8-5.5,7.8,0h0Zm0,0c-.2-4.2-6.7-4.2-6.9,0,0,4.5,6.8,4.5,6.9,0h0Z" fill="#ec9222"/></g></g></g></svg>