<svg xmlns="http://www.w3.org/2000/svg" width="1.9cm" height="2.2cm" viewBox="0 0 53.3 61.5"><path fill="#231f20" d="M0 15.4v30.8l26.6 15.4 26.7-15.4V15.4L26.6 0 0 15.4z"/><g fill="#fff"><path d="M40.5 21.3c-.6.1-.7.1 0 0z"/><path d="M40.8 24.4s2 15.2-10.6 19.9C17.6 49 8.4 42.6 8.4 42.6c7.1.9 10.6-2.9 10.6-2.9-5.3-.6-6.9-5.4-6.9-5.4H15c-5.5-1.5-5.9-7.9-5.2-7.5.7.4 2.8.9 2.8.9-5.3-5.5-1.5-10-1.5-10 2.5 5.5 14.8 7.8 14.8 7.8l.4-2.6v-.8h.1v-.2c.8-3.2 3.6-5.6 7.1-5.6s4.3 1 5.6 2.6c0 0 4-1.3 4.5-2 .5-.6-1.1 3.8-3.2 4.3-.7.2-.5.2 0 0 1.1-.2 3.7-.8 4.2-1.4.6-.8-2.6 4.3-3.9 4.4zM26.6 22z"/></g></svg>